# xmcd CD database file
#
# Track frame offsets:
#	150
#	22180
#	42992
#	61912
#	85040
#	111695
#	130502
#	159137
#	179527
#	206817
#	222627
#
# Disc length: 3209 seconds
#
# Revision: 6
# Processed by: cddbd v1.5.2PL0 Copyright (c) Steve Scherf et al.
# Submitted via: CDex 1.51
#
DISCID=9f0c870b
DTITLE=Walter Trout Band - Breaking The rules
DYEAR=1995
DGENRE=Blues/Rock
TTITLE0=To Begin Again
TTITLE1=How Much Do You Want
TTITLE2=Under My Skin
TTITLE3=Like a Stranger
TTITLE4=Surrounded by Eden
TTITLE5=Breaking the Rules
TTITLE6=The Reason I'm Gone
TTITLE7=I Don't Wanna Be Lonely
TTITLE8=Put It Right Back
TTITLE9=Lady Lucky
TTITLE10=Watch Her Dance
EXTD=YEAR: 1995
EXTT0=
EXTT1=
EXTT2=
EXTT3=
EXTT4=
EXTT5=
EXTT6=
EXTT7=
EXTT8=
EXTT9=
EXTT10=
PLAYORDER=
